# xmcd
#
# Track frame offsets:
#	150
#	14782
#	25810
#	36327
#	48357
#	61555
#	72852
#	84925
#	95637
#	103067
#	118362
#	125342
#	135355
#	145112
#	152047
#	163930
#	176705
#	188375
#	201785
#	215250
#	225470
#	235150
#	245780
#	259592
#	268560
#	281110
#	290495
#	299712
#	308507
#	317537
#
# Disc length: 4353 seconds
#
# Revision: 0
# Processed by: cddbd v1.4PL0 Copyright (c) Steve Scherf et al.
# Submitted via: EasyCDDAExtractor 4.6.9.1
#
DISCID=b610ff1e
DTITLE=VARIOUS, TV CD - NASHVILLE GUITARS 30 GUITAR CLASSICS
DYEAR=2002
DGENRE=Acoustic
TTITLE0=UNDER THE DOUBLE EAGLE
TTITLE1=500 MILES FROM HOME
TTITLE2=DARLING CLEMENTINE
TTITLE3=PUT YOUR LITTLE FOOT
TTITLE4=DON`T LET YOUR DEAL GO DOWN
TTITLE5=TWINKLE LITTLE STAR
TTITLE6=RUBBER DOLLY
TTITLE7=RED RIVER VALLEY
TTITLE8=WHEN YOU AND I WERE YOUNG MAGGIE
TTITLE9=RED WING
TTITLE10=JOHN HENRY
TTITLE11=OH SUZANNA
TTITLE12=HOME SWEET HOME
TTITLE13=HANSOME MOLLY
TTITLE14=BILL BAILY
TTITLE15=SWANEE RIVER
TTITLE16=CHURCH IN THE WILDWOOD
TTITLE17=BARBRA ALLEN
TTITLE18=WILLOW GARDEN
TTITLE19=LIBERTY
TTITLE20=COLUMBUS STOCKADE BLUES
TTITLE21=BLACK EYED SUSIE
TTITLE22=TOM DOOLEY
TTITLE23=DARLIN` NELLIE GRAY
TTITLE24=WHEN THE WORK`S ALL DONE THIS FALL
TTITLE25=8TH OF JANUARY
TTITLE26=SPANISH TWO STEP
TTITLE27=POOR REBEL SOLDIER
TTITLE28=CASEY JONES
TTITLE29=SHE`LL BE COMIN` ROUND THE MOUNTAIN
EXTD=
EXTT0=
EXTT1=
EXTT2=
EXTT3=
EXTT4=
EXTT5=
EXTT6=
EXTT7=
EXTT8=
EXTT9=
EXTT10=
EXTT11=
EXTT12=
EXTT13=
EXTT14=
EXTT15=
EXTT16=
EXTT17=
EXTT18=
EXTT19=
EXTT20=
EXTT21=
EXTT22=
EXTT23=
EXTT24=
EXTT25=
EXTT26=
EXTT27=
EXTT28=
EXTT29=
PLAYORDER=
